<svg xmlns="http://www.w3.org/2000/svg" width="1877" height="543" viewBox="0 0 1877 543">
<path fill="#F97316" fill-rule="nonzero" d="M 4 346 L 7 349 L 34 361 L 65 369 L 94 373 L 145 373 L 183 366 L 211 354 L 227 342 L 237 331 L 240 325 L 213 343 L 193 350 L 173 354 L 154 356 L 114 356 L 78 351 L 52 344 L 23 330 L 39 286 L 38 283 L 32 280 L 27 280 L 24 283 L 4 339 Z M 108 97 L 110 97 L 114 95 L 117 95 L 118 94 L 123 94 L 124 93 L 135 93 L 136 92 L 160 93 L 161 94 L 167 94 L 168 95 L 172 95 L 176 97 L 179 97 L 180 98 L 188 100 L 191 102 L 196 103 L 210 110 L 215 110 L 218 106 L 218 104 L 220 101 L 223 91 L 214 86 L 212 86 L 211 85 L 206 84 L 203 82 L 201 82 L 197 80 L 194 80 L 190 78 L 180 77 L 179 76 L 171 76 L 170 75 L 143 75 L 142 76 L 135 76 L 134 77 L 127 78 L 118 82 L 112 87 L 109 92 Z M 65 33 L 43 47 L 30 60 L 18 79 L 13 92 L 9 113 L 9 134 L 14 157 L 27 180 L 54 204 L 87 220 L 132 236 L 157 250 L 165 259 L 168 269 L 167 280 L 163 288 L 177 282 L 186 270 L 188 257 L 186 247 L 182 240 L 168 228 L 150 219 L 105 203 L 72 187 L 47 165 L 34 143 L 29 122 L 31 86 L 41 61 L 48 51 L 67 33 Z M 10 515 L 16 520 L 53 481 L 90 459 L 145 445 L 274 424 L 272 418 L 158 435 L 96 449 L 65 463 L 61 421 L 79 400 L 157 398 L 328 419 L 235 468 L 185 488 L 143 492 L 88 479 L 83 483 L 148 498 L 186 494 L 219 482 L 340 418 L 336 412 L 124 390 L 78 394 L 61 406 L 55 419 L 57 467 Z M 17 528 L 24 535 L 59 497 L 88 478 L 143 491 L 177 489 L 235 467 L 327 419 L 157 399 L 107 397 L 79 401 L 67 410 L 62 421 L 61 441 L 65 462 L 84 452 L 123 441 L 272 417 L 279 430 L 158 450 L 93 466 L 53 490 Z"/>
<path fill="#000000" fill-rule="evenodd" d="M 1200 430 L 1198 432 L 1198 508 L 1201 510 L 1213 510 L 1216 507 L 1216 432 L 1214 430 Z M 711 430 L 709 432 L 709 508 L 712 510 L 724 510 L 727 507 L 727 432 L 725 430 Z M 607 430 L 605 433 L 605 507 L 608 510 L 621 510 L 623 508 L 623 432 L 621 430 Z M 1757 434 L 1757 507 L 1760 510 L 1772 510 L 1775 508 L 1775 449 L 1777 447 L 1788 447 L 1792 450 L 1794 455 L 1795 508 L 1797 510 L 1810 510 L 1813 507 L 1813 460 L 1811 451 L 1816 447 L 1826 447 L 1830 450 L 1832 455 L 1833 508 L 1835 510 L 1848 510 L 1851 507 L 1850 451 L 1845 438 L 1839 432 L 1832 429 L 1823 428 L 1816 429 L 1803 434 L 1797 430 L 1784 428 L 1759 432 Z M 1749 430 L 1746 430 L 1745 429 L 1738 429 L 1737 428 L 1735 428 L 1734 429 L 1725 429 L 1717 432 L 1714 432 L 1710 435 L 1710 508 L 1712 510 L 1725 510 L 1728 506 L 1728 449 L 1730 447 L 1743 447 L 1744 448 L 1749 448 L 1751 445 L 1751 440 L 1752 439 L 1752 432 Z M 1663 428 L 1662 429 L 1658 429 L 1651 432 L 1642 440 L 1637 449 L 1637 451 L 1635 455 L 1633 472 L 1634 473 L 1634 481 L 1635 482 L 1635 485 L 1636 486 L 1637 491 L 1642 500 L 1647 505 L 1653 509 L 1655 509 L 1659 511 L 1668 512 L 1669 511 L 1675 511 L 1678 509 L 1682 508 L 1692 499 L 1698 487 L 1698 483 L 1699 482 L 1699 478 L 1700 477 L 1700 463 L 1699 462 L 1698 453 L 1696 450 L 1696 448 L 1694 444 L 1685 434 L 1675 429 Z M 1665 446 L 1668 446 L 1673 448 L 1678 453 L 1681 461 L 1681 479 L 1680 480 L 1679 485 L 1673 492 L 1668 493 L 1667 494 L 1662 493 L 1657 489 L 1654 484 L 1653 478 L 1652 477 L 1652 463 L 1653 462 L 1654 456 L 1656 452 L 1660 448 Z M 1479 432 L 1478 433 L 1479 446 L 1482 449 L 1484 449 L 1488 447 L 1491 447 L 1492 446 L 1502 446 L 1508 451 L 1509 453 L 1509 458 L 1508 459 L 1494 459 L 1493 460 L 1489 460 L 1481 464 L 1475 470 L 1471 481 L 1471 489 L 1472 490 L 1472 494 L 1475 501 L 1481 507 L 1491 511 L 1512 511 L 1513 510 L 1525 509 L 1528 505 L 1528 458 L 1527 457 L 1527 449 L 1526 448 L 1526 445 L 1522 437 L 1518 433 L 1512 430 L 1505 429 L 1504 428 L 1493 428 L 1492 429 L 1487 429 Z M 1490 481 L 1494 477 L 1496 477 L 1497 476 L 1508 476 L 1510 478 L 1510 492 L 1508 494 L 1498 494 L 1497 493 L 1494 493 L 1489 487 Z M 1412 431 L 1410 431 L 1406 429 L 1399 429 L 1398 428 L 1396 428 L 1395 429 L 1385 429 L 1384 430 L 1380 430 L 1379 431 L 1372 432 L 1370 434 L 1370 534 L 1372 536 L 1385 536 L 1388 533 L 1388 512 L 1390 510 L 1392 510 L 1393 511 L 1399 511 L 1401 512 L 1402 511 L 1408 511 L 1409 510 L 1414 509 L 1422 503 L 1429 492 L 1429 490 L 1431 486 L 1431 482 L 1432 481 L 1432 472 L 1433 471 L 1432 469 L 1432 460 L 1431 459 L 1431 455 L 1428 449 L 1428 447 L 1425 442 L 1417 434 L 1414 433 Z M 1390 447 L 1401 447 L 1402 448 L 1404 448 L 1409 452 L 1413 460 L 1413 463 L 1414 464 L 1414 477 L 1413 478 L 1413 482 L 1410 488 L 1407 491 L 1403 493 L 1394 493 L 1388 489 L 1388 449 Z M 1235 439 L 1227 455 L 1226 481 L 1230 494 L 1242 507 L 1252 511 L 1261 512 L 1274 510 L 1282 506 L 1290 510 L 1306 512 L 1318 510 L 1324 507 L 1330 501 L 1333 493 L 1333 482 L 1330 474 L 1322 466 L 1306 459 L 1301 454 L 1301 449 L 1305 446 L 1316 446 L 1326 449 L 1330 436 L 1327 431 L 1314 428 L 1304 428 L 1293 432 L 1287 437 L 1284 442 L 1282 452 L 1284 463 L 1292 472 L 1310 481 L 1314 485 L 1315 490 L 1308 494 L 1299 494 L 1285 490 L 1282 498 L 1279 496 L 1277 491 L 1272 491 L 1269 493 L 1256 493 L 1252 491 L 1246 484 L 1244 476 L 1244 464 L 1247 454 L 1253 448 L 1259 446 L 1275 449 L 1278 444 L 1279 433 L 1270 429 L 1256 428 L 1245 431 Z M 1089 431 L 1086 435 L 1087 437 L 1087 443 L 1089 448 L 1092 449 L 1093 448 L 1100 447 L 1101 446 L 1110 446 L 1111 447 L 1113 447 L 1116 450 L 1118 454 L 1118 457 L 1116 459 L 1102 459 L 1101 460 L 1098 460 L 1089 464 L 1085 468 L 1080 478 L 1080 492 L 1083 500 L 1085 503 L 1091 508 L 1096 510 L 1099 510 L 1100 511 L 1121 511 L 1122 510 L 1128 510 L 1129 509 L 1133 509 L 1136 507 L 1136 452 L 1135 451 L 1135 447 L 1134 446 L 1133 441 L 1125 432 L 1118 429 L 1114 429 L 1113 428 L 1102 428 L 1101 429 L 1096 429 L 1092 431 Z M 1101 478 L 1106 476 L 1116 476 L 1118 478 L 1118 492 L 1116 494 L 1107 494 L 1106 493 L 1101 492 L 1098 488 L 1098 482 Z M 978 435 L 978 507 L 981 510 L 994 510 L 996 508 L 996 449 L 998 447 L 1010 447 L 1014 451 L 1016 458 L 1016 507 L 1019 510 L 1031 510 L 1034 508 L 1033 450 L 1038 447 L 1048 447 L 1053 454 L 1054 508 L 1057 510 L 1069 510 L 1072 507 L 1071 450 L 1069 443 L 1063 434 L 1056 430 L 1045 428 L 1037 429 L 1026 434 L 1015 429 L 1005 428 L 984 431 Z M 970 430 L 960 429 L 959 428 L 956 428 L 955 429 L 947 429 L 946 430 L 942 430 L 941 431 L 933 433 L 931 435 L 931 508 L 933 510 L 946 510 L 949 507 L 949 449 L 951 447 L 964 447 L 965 448 L 970 448 L 972 446 L 973 436 L 974 435 L 973 432 Z M 885 428 L 884 429 L 880 429 L 879 430 L 874 431 L 868 435 L 864 439 L 860 445 L 859 449 L 857 452 L 857 455 L 855 460 L 855 480 L 856 481 L 857 488 L 859 491 L 860 495 L 871 507 L 880 511 L 890 512 L 891 511 L 896 511 L 905 507 L 915 496 L 918 490 L 918 488 L 920 484 L 920 480 L 921 479 L 921 461 L 920 460 L 920 456 L 919 455 L 918 450 L 914 442 L 908 435 L 902 431 L 900 431 L 896 429 Z M 887 446 L 893 447 L 899 453 L 901 457 L 902 464 L 903 465 L 903 475 L 902 476 L 901 483 L 899 487 L 892 493 L 884 493 L 882 492 L 877 487 L 875 483 L 874 476 L 873 475 L 873 465 L 874 464 L 875 457 L 877 453 L 883 447 L 886 447 Z M 742 432 L 740 434 L 740 507 L 743 510 L 755 510 L 758 508 L 758 449 L 760 447 L 773 447 L 777 450 L 780 457 L 780 507 L 783 510 L 796 510 L 798 508 L 798 455 L 797 454 L 796 446 L 791 437 L 783 431 L 777 429 L 771 429 L 770 428 L 767 428 L 766 429 L 755 429 L 754 430 Z M 663 428 L 662 429 L 658 429 L 657 430 L 652 431 L 646 435 L 640 442 L 636 450 L 634 460 L 633 461 L 633 479 L 634 480 L 636 490 L 639 496 L 649 507 L 658 511 L 668 512 L 669 511 L 674 511 L 675 510 L 680 509 L 686 505 L 694 495 L 695 491 L 697 488 L 697 485 L 699 480 L 699 460 L 698 459 L 697 452 L 695 449 L 694 445 L 690 439 L 686 435 L 680 431 L 678 431 L 674 429 Z M 665 446 L 671 447 L 677 453 L 679 456 L 680 463 L 681 464 L 681 475 L 680 476 L 679 483 L 677 487 L 670 493 L 662 493 L 660 492 L 655 487 L 652 480 L 652 475 L 651 474 L 651 466 L 652 465 L 652 460 L 653 459 L 653 457 L 655 453 L 661 447 L 664 447 Z M 1543 409 L 1539 412 L 1539 485 L 1540 486 L 1541 496 L 1547 506 L 1554 510 L 1556 510 L 1557 511 L 1572 511 L 1573 510 L 1579 509 L 1584 505 L 1582 493 L 1579 490 L 1577 490 L 1571 493 L 1562 493 L 1558 488 L 1558 482 L 1557 481 L 1557 450 L 1559 448 L 1578 448 L 1581 446 L 1581 432 L 1579 430 L 1559 430 L 1557 428 L 1557 409 L 1554 407 L 1552 408 L 1548 408 L 1547 409 Z M 1151 409 L 1148 411 L 1148 489 L 1149 490 L 1150 497 L 1153 503 L 1157 507 L 1162 510 L 1165 510 L 1166 511 L 1181 511 L 1182 510 L 1185 510 L 1188 508 L 1190 508 L 1192 506 L 1192 499 L 1191 498 L 1190 492 L 1188 490 L 1186 490 L 1180 493 L 1171 493 L 1167 489 L 1167 487 L 1166 486 L 1166 450 L 1168 448 L 1186 448 L 1190 445 L 1190 432 L 1188 430 L 1168 430 L 1166 428 L 1166 410 L 1163 407 L 1156 408 L 1155 409 Z M 1203 400 L 1201 401 L 1197 406 L 1197 409 L 1196 410 L 1197 417 L 1199 420 L 1203 423 L 1210 423 L 1214 421 L 1217 416 L 1217 413 L 1218 412 L 1217 410 L 1217 406 L 1215 403 L 1211 400 Z M 714 400 L 712 401 L 708 406 L 708 409 L 707 410 L 708 417 L 709 419 L 714 423 L 721 423 L 725 421 L 728 416 L 728 406 L 726 403 L 722 400 Z M 610 400 L 607 402 L 604 406 L 604 416 L 607 421 L 611 423 L 618 423 L 621 421 L 624 417 L 624 414 L 625 413 L 624 406 L 623 404 L 618 400 Z M 1632 396 L 1625 395 L 1624 394 L 1611 394 L 1610 395 L 1607 395 L 1601 398 L 1595 404 L 1591 412 L 1591 415 L 1590 416 L 1590 424 L 1589 425 L 1589 506 L 1592 510 L 1605 510 L 1607 508 L 1607 450 L 1609 448 L 1628 448 L 1632 445 L 1632 432 L 1630 430 L 1609 430 L 1607 428 L 1609 417 L 1614 412 L 1624 412 L 1628 414 L 1631 414 L 1633 411 L 1633 407 L 1634 406 L 1634 402 L 1635 401 L 1634 398 Z M 1453 394 L 1452 395 L 1444 396 L 1442 398 L 1442 494 L 1443 495 L 1444 501 L 1450 508 L 1458 511 L 1466 511 L 1468 509 L 1468 505 L 1469 504 L 1469 495 L 1468 494 L 1463 493 L 1460 490 L 1460 397 L 1458 394 Z M 854 396 L 846 395 L 845 394 L 832 394 L 831 395 L 826 396 L 822 398 L 817 403 L 813 410 L 812 417 L 811 418 L 811 508 L 813 510 L 826 510 L 829 507 L 829 450 L 831 448 L 850 448 L 853 446 L 853 432 L 851 430 L 831 430 L 829 428 L 829 421 L 831 416 L 836 412 L 845 412 L 849 414 L 852 414 L 854 412 L 855 403 L 856 402 L 856 398 Z M 535 396 L 533 398 L 533 506 L 535 508 L 538 508 L 543 510 L 547 510 L 548 511 L 557 511 L 558 512 L 561 512 L 562 511 L 569 511 L 577 508 L 585 502 L 592 491 L 592 489 L 594 485 L 594 482 L 595 481 L 595 473 L 596 472 L 594 454 L 593 453 L 592 448 L 587 439 L 579 432 L 575 431 L 572 429 L 566 429 L 565 428 L 561 428 L 560 429 L 555 429 L 553 430 L 551 428 L 551 397 L 549 394 L 544 394 L 543 395 Z M 557 447 L 567 447 L 569 448 L 574 453 L 576 458 L 576 461 L 577 462 L 577 477 L 576 478 L 576 481 L 573 487 L 569 491 L 565 493 L 553 493 L 551 491 L 551 451 Z M 1150 188 L 1135 188 L 1133 189 L 1131 192 L 1131 293 L 1132 294 L 1142 294 L 1143 293 L 1148 293 L 1151 291 L 1151 189 Z M 473 159 L 470 162 L 471 282 L 475 304 L 485 326 L 501 341 L 514 347 L 529 350 L 559 350 L 607 341 L 611 336 L 610 161 L 607 159 L 561 159 L 558 162 L 558 296 L 545 299 L 532 295 L 527 289 L 524 279 L 522 161 L 519 159 Z M 363 154 L 344 158 L 328 166 L 315 177 L 315 179 L 304 193 L 297 208 L 291 231 L 290 266 L 292 280 L 299 303 L 307 318 L 321 334 L 334 343 L 346 348 L 360 351 L 377 351 L 397 346 L 414 337 L 423 329 L 434 314 L 440 301 L 446 280 L 448 265 L 448 241 L 445 221 L 440 205 L 427 182 L 415 170 L 401 161 L 382 155 Z M 363 207 L 374 207 L 377 209 L 379 209 L 387 217 L 389 220 L 389 222 L 391 225 L 391 227 L 393 231 L 394 241 L 395 242 L 395 263 L 394 264 L 394 270 L 393 271 L 391 281 L 386 290 L 380 296 L 376 298 L 363 298 L 357 295 L 350 287 L 347 281 L 347 279 L 345 275 L 345 272 L 344 271 L 344 265 L 343 264 L 343 241 L 344 240 L 344 235 L 345 234 L 346 227 L 349 222 L 349 219 L 351 216 L 357 210 Z M 1713 157 L 1713 335 L 1715 337 L 1760 338 L 1764 335 L 1764 201 L 1770 198 L 1783 198 L 1789 200 L 1795 206 L 1800 225 L 1800 334 L 1803 337 L 1850 337 L 1852 335 L 1852 216 L 1847 189 L 1836 168 L 1823 156 L 1808 149 L 1792 146 L 1756 147 Z M 1359 153 L 1335 147 L 1310 146 L 1281 151 L 1257 159 L 1254 162 L 1254 334 L 1257 337 L 1302 338 L 1306 335 L 1305 202 L 1310 199 L 1321 198 L 1336 200 L 1346 204 L 1352 204 L 1355 200 L 1362 159 Z M 1585 151 L 1573 158 L 1561 169 L 1551 184 L 1541 208 L 1537 230 L 1537 260 L 1545 294 L 1553 309 L 1569 326 L 1595 339 L 1612 342 L 1631 342 L 1673 333 L 1679 329 L 1674 285 L 1671 281 L 1639 289 L 1618 289 L 1604 284 L 1594 275 L 1591 266 L 1685 265 L 1688 259 L 1688 225 L 1684 201 L 1679 187 L 1669 170 L 1658 159 L 1645 151 L 1621 145 L 1607 145 Z M 1591 219 L 1594 212 L 1594 209 L 1597 204 L 1604 198 L 1606 198 L 1610 196 L 1618 196 L 1619 197 L 1624 198 L 1628 201 L 1633 207 L 1637 218 L 1637 220 L 1635 222 L 1621 222 L 1620 221 L 1593 221 Z M 1419 150 L 1402 160 L 1393 169 L 1382 185 L 1373 207 L 1369 227 L 1368 249 L 1371 275 L 1378 297 L 1384 308 L 1397 323 L 1408 331 L 1423 338 L 1443 342 L 1462 342 L 1483 339 L 1507 332 L 1511 328 L 1506 287 L 1502 281 L 1471 289 L 1449 289 L 1433 282 L 1425 274 L 1422 267 L 1424 265 L 1516 265 L 1519 262 L 1520 229 L 1517 207 L 1512 190 L 1498 167 L 1484 155 L 1474 150 L 1453 145 L 1438 145 Z M 1423 218 L 1426 211 L 1426 208 L 1428 205 L 1436 198 L 1438 198 L 1442 196 L 1450 196 L 1457 199 L 1464 206 L 1468 215 L 1468 221 L 1467 222 L 1453 222 L 1452 221 L 1425 221 Z M 645 114 L 640 117 L 640 274 L 642 297 L 647 316 L 652 326 L 664 339 L 679 347 L 693 350 L 718 350 L 747 342 L 750 339 L 744 296 L 741 293 L 736 293 L 721 298 L 702 297 L 696 291 L 692 270 L 692 212 L 694 210 L 742 210 L 744 207 L 744 163 L 741 159 L 694 159 L 692 157 L 692 109 L 690 107 Z M 1058 117 L 1068 109 L 1081 103 L 1084 103 L 1089 101 L 1093 101 L 1094 100 L 1100 100 L 1101 99 L 1120 99 L 1121 100 L 1133 101 L 1134 102 L 1137 102 L 1138 103 L 1141 103 L 1142 104 L 1147 105 L 1157 110 L 1159 110 L 1175 119 L 1179 119 L 1183 114 L 1183 111 L 1187 101 L 1187 97 L 1185 95 L 1177 91 L 1170 89 L 1165 86 L 1163 86 L 1159 84 L 1156 84 L 1155 83 L 1152 83 L 1151 82 L 1148 82 L 1147 81 L 1141 81 L 1140 80 L 1112 80 L 1111 81 L 1105 81 L 1104 82 L 1097 83 L 1091 86 L 1089 86 L 1081 90 L 1074 95 L 1062 108 L 1061 111 L 1058 115 Z M 772 83 L 769 86 L 770 344 L 810 347 L 821 345 L 821 211 L 826 208 L 841 207 L 853 215 L 857 230 L 858 344 L 860 346 L 908 346 L 910 343 L 910 237 L 906 203 L 898 183 L 884 167 L 872 160 L 851 155 L 822 156 L 822 79 L 818 74 Z M 1031 43 L 1006 62 L 980 96 L 968 123 L 958 162 L 958 243 L 965 275 L 979 309 L 998 336 L 1018 354 L 1043 368 L 1069 376 L 1099 379 L 1139 377 L 1164 373 L 1202 361 L 1205 356 L 1204 346 L 1166 356 L 1137 359 L 1104 359 L 1069 352 L 1045 341 L 1024 325 L 997 289 L 984 256 L 978 228 L 975 188 L 977 154 L 982 127 L 992 98 L 1007 71 Z"/>
<path fill="#268C26" fill-rule="evenodd" d="M 1088 17 L 1049 32 L 1030 47 L 1006 75 L 988 112 L 979 149 L 977 206 L 989 267 L 1016 315 L 1034 332 L 1070 351 L 1098 357 L 1145 357 L 1215 341 L 1214 178 L 1152 179 L 1150 294 L 1111 295 L 1087 288 L 1066 271 L 1051 245 L 1043 211 L 1042 174 L 1048 137 L 1062 106 L 1080 89 L 1118 78 L 1154 81 L 1192 99 L 1211 41 L 1189 27 L 1154 17 L 1125 14 Z"/>
</svg>